<svg width="536" height="300" viewBox="0 0 536 300" fill="none" xmlns="http://www.w3.org/2000/svg">
<path d="M348.568 215.589L348.037 220.659C346.655 223.961 345.274 227.261 343.894 230.559C343.412 231.717 342.928 232.873 342.442 234.027C342.221 234.567 341.908 235.064 341.518 235.497C341.498 235.526 341.473 235.55 341.442 235.568C341.412 235.586 341.378 235.596 341.344 235.599C341.227 235.599 341.185 235.443 341.176 235.326C341.109 234.076 340.96 232.831 340.729 231.6C339.436 225.657 332.536 223.479 327.124 223.614C324.958 223.647 322.825 224.141 320.866 225.063C318.04 226.431 316.939 230.235 316.789 230.376L316.669 230.865L314.731 238.938C314.323 240.738 314.011 241.689 312.349 242.169C312.295 242.187 310.639 243.069 310.585 243.069C309.943 243.249 311.701 242.862 311.005 242.745L308.8 242.4L307.861 242.184L294.16 238.941C294.691 239.031 295.234 239.13 295.786 239.241L298.966 240L298.126 235.968C295.939 223.416 299.563 212.028 305.737 205.845C307.363 204.219 308.17 203.802 310.066 202.719L311.131 205.242C311.131 205.242 322.027 208.491 324.595 198.522C325.633 198.612 327.628 198.597 328.657 198.822C334.021 199.947 338.865 202.806 342.442 206.958C342.757 207.318 343.066 207.69 343.372 208.068L343.534 208.266C343.723 208.503 343.924 208.746 344.113 208.989L344.248 209.181C345.816 211.228 347.258 213.368 348.568 215.589Z" fill="#353642"/>
<path d="M219.1 163.113C220.828 154.473 228.166 146.103 249.124 144.186C295.708 139.929 270.526 127.086 285.694 113.031C300.862 98.976 358.213 122.1 343.21 158.214C328.207 194.328 377.734 154.245 398.71 199.989C401.749 206.627 403.212 213.878 402.985 221.175C402.72 228.885 400.735 236.438 397.174 243.282C390.475 256.368 378.031 268.026 360.034 275.25C357.378 276.332 354.598 277.305 351.694 278.169" stroke="#CCDDE2" stroke-width="2" stroke-miterlimit="10"/>
<path d="M366.664 234.171C366.301 238.41 363.427 239.1 363.427 239.1C360.997 240.537 357.265 238.992 356.512 236.298C356.501 236.269 356.495 236.239 356.494 236.208C355.894 233.901 354.724 230.937 353.152 227.694C350.122 220.362 346.183 212.97 341.131 207.123C337.554 202.971 332.71 200.112 327.346 198.987C327.328 198.987 327.319 198.969 327.301 198.969C320.188 196.827 316.726 192.453 315.226 188.259C315.226 188.259 315.226 188.259 315.226 188.241C314.584 185.592 313.93 183.009 314.281 181.446C314.881 178.707 315.181 175.746 314.434 175.146C313.495 174.36 311.797 174.942 307.477 175.812C303.736 176.58 301.741 176.145 301.291 173.859C301.22 173.504 301.184 173.143 301.183 172.782C301.165 173.01 300.283 172.104 300.241 172.32C299.959 173.487 299.395 173.955 298.165 174.468C296.338 175.227 295.591 178.158 295.321 180.111C295.039 182.19 295.975 185.058 296.716 187.011C295.768 185.928 294.682 186.054 292.984 186.711C292.558 186.873 291.484 186.828 290.635 186.531C290.755 186.428 290.897 186.353 291.049 186.312C291.322 186.222 289.342 185.238 289.63 185.175C292.513 184.524 294.13 182.121 293.788 180.006C292.939 174.681 294.07 168.417 297.667 164.268C301.633 159.705 308.104 158.757 313.582 160.845C317.884 162.48 321.952 165.834 323.443 170.307C323.443 170.325 323.443 170.343 323.461 170.361C323.651 170.93 323.796 171.513 323.896 172.104C324.445 175.431 323.272 178.803 322.621 182.091C322.387 183.276 322.981 184.569 323.107 185.508C323.83 191.148 330.34 192.741 335.491 195.135C346.318 200.178 355.159 208.8 361.105 219.285C365.053 226.227 366.463 230.961 366.664 234.171Z" fill="#3FBDF1"/>
<path d="M309.585 201.6C309.468 201.663 309.351 201.726 309.243 201.798C307.299 202.912 305.511 204.28 303.927 205.866C297.756 212.049 294.132 223.437 296.319 235.989L297.159 240" stroke="black" stroke-width="2" stroke-miterlimit="10"/>
<path d="M364.186 285.822C364.187 276.451 363.377 267.099 361.765 257.868C360.687 251.605 359.202 245.419 357.319 239.349C356.188 235.662 354.805 231.684 353.161 227.691C351.635 223.954 349.871 220.319 347.881 216.807C345.952 213.368 343.694 210.124 341.14 207.12C337.563 202.968 332.719 200.109 327.355 198.984C326.327 198.766 325.286 198.61 324.238 198.516" stroke="black" stroke-width="2" stroke-miterlimit="10"/>
<path d="M253.301 204.273L253.148 204.246C251.316 203.939 249.436 204.097 247.68 204.705C245.925 205.313 244.35 206.352 243.101 207.726L232.841 218.904L231.641 220.224C231.566 220.305 231.496 220.39 231.431 220.479" stroke="black" stroke-width="2" stroke-miterlimit="10"/>
<path d="M238.482 223.398L244.113 217.152L244.122 217.143" stroke="black" stroke-width="2" stroke-miterlimit="10"/>
<path d="M287.468 255.66L313.955 264.993C316.505 265.892 319.22 266.231 321.913 265.987C324.607 265.743 327.216 264.922 329.564 263.58C331.912 262.238 333.944 260.405 335.52 258.208C337.097 256.01 338.182 253.499 338.702 250.845L344.969 218.853C345.289 217.21 345.274 215.52 344.924 213.883C344.575 212.246 343.898 210.697 342.935 209.328C342.665 208.942 342.373 208.574 342.059 208.224" stroke="black" stroke-width="2" stroke-miterlimit="10"/>
<path d="M269.937 254.37C266.565 256.647 264.087 263.562 262.77 268.101C262.545 268.862 262.078 269.53 261.441 270.004C260.804 270.477 260.03 270.732 259.236 270.729C258.699 270.729 258.168 270.612 257.679 270.387C256.93 270.036 256.322 269.442 255.951 268.703C255.581 267.963 255.471 267.12 255.639 266.31C257.844 255.528 265.626 234.243 292.359 238.935C292.893 239.025 293.436 239.124 293.985 239.235L297.159 240L306.06 242.169L308.46 242.748C309.371 242.969 310.325 242.935 311.217 242.649C311.272 242.638 311.327 242.623 311.379 242.604C312.201 242.322 312.939 241.837 313.523 241.194C314.108 240.551 314.521 239.771 314.724 238.926L316.749 230.502L316.866 230.013L319.518 219" stroke="black" stroke-width="2" stroke-miterlimit="10"/>
<path d="M256.901 219.849H247.829C246.794 219.849 245.802 219.438 245.071 218.707C244.34 217.975 243.929 216.983 243.929 215.949C243.929 214.915 244.34 213.923 245.071 213.191C245.802 212.46 246.794 212.049 247.829 212.049H260.681" stroke="black" stroke-width="2" stroke-miterlimit="10"/>
<path d="M249.937 219.846C249.808 221.436 249.202 222.612 248.308 223.425C246.004 225.525 241.783 225.285 238.846 223.848" stroke="black" stroke-width="2" stroke-miterlimit="10"/>
<path d="M232.852 218.901C230.251 215.757 230.782 211.494 232.801 208.2C238.528 198.852 251.614 200.646 260.101 204.531C266.977 207.669 273.001 212.385 278.866 217.089C281.731 219.387 284.545 221.781 287.266 224.289C287.765 224.741 288.361 225.074 289.008 225.263C289.654 225.451 290.335 225.491 291 225.378C291.664 225.266 292.294 225.004 292.842 224.612C293.391 224.221 293.843 223.711 294.166 223.119C295.666 220.35 297.289 217.329 297.595 216.492" stroke="black" stroke-width="2" stroke-miterlimit="10"/>
<path d="M248.311 223.425C248.311 223.425 261.844 230.766 271.897 241.314" stroke="black" stroke-width="2" stroke-miterlimit="10"/>
<path d="M266.635 258.351C265.135 260.913 266.425 264.675 269.26 265.575C272.88 266.743 276.708 267.127 280.489 266.7C284.614 266.22 287.356 262.815 289.162 258.915C289.292 258.625 289.361 258.31 289.362 257.992C289.363 257.674 289.297 257.359 289.169 257.068C289.041 256.777 288.852 256.516 288.617 256.302C288.38 256.088 288.102 255.927 287.8 255.828C287.254 255.648 286.66 255.681 286.138 255.92C285.615 256.158 285.202 256.585 284.98 257.115C284.38 258.501 283.453 260.235 282.223 261.015" stroke="black" stroke-width="2" stroke-miterlimit="10"/>
<path d="M273.7 257.871C273.7 257.871 269.995 261.855 272.917 266.073C273.046 266.25 273.197 266.41 273.367 266.547" stroke="black" stroke-width="2" stroke-miterlimit="10"/>
<path d="M278.586 258.528C278.586 258.528 275.16 266.238 279.555 266.802" stroke="black" stroke-width="2" stroke-miterlimit="10"/>
<path d="M400.222 285.828H188.05" stroke="black" stroke-width="2" stroke-miterlimit="10"/>
<path d="M271.52 271.299H250.361C250.146 273.296 249.199 275.144 247.704 276.485C246.208 277.827 244.269 278.568 242.261 278.565H171.143C171.146 280.489 171.912 282.332 173.272 283.692C174.632 285.052 176.476 285.818 178.4 285.822H271.52C273.446 285.821 275.294 285.057 276.659 283.697C278.023 282.337 278.793 280.492 278.801 278.565V273.687C278.801 273.05 278.548 272.44 278.097 271.99C277.647 271.54 277.037 271.287 276.401 271.287L271.52 271.299Z" stroke="black" stroke-width="2" stroke-miterlimit="10"/>
<path d="M238.846 223.848C239.47 224.711 239.918 225.687 240.166 226.722L250.189 268.524C250.411 269.432 250.469 270.371 250.36 271.299C250.145 273.296 249.199 275.144 247.704 276.485C246.208 277.827 244.269 278.568 242.26 278.565H169.822C167.993 278.565 166.217 277.948 164.78 276.815C163.344 275.682 162.331 274.098 161.905 272.319L151.9 230.52C151.613 229.323 151.6 228.077 151.864 226.874C152.128 225.672 152.66 224.545 153.423 223.579C154.185 222.612 155.156 221.831 156.264 221.294C157.371 220.757 158.586 220.478 159.817 220.479H232.249C233.439 220.477 234.615 220.737 235.693 221.242C236.77 221.746 237.723 222.482 238.483 223.398L238.846 223.848Z" stroke="black" stroke-width="2" stroke-miterlimit="10"/>
<path d="M227.5 171.825C227.038 171.282 226.552 170.76 226.045 170.253C223.2 167.398 219.819 165.134 216.096 163.589C212.374 162.044 208.383 161.251 204.352 161.253H166.378C162.349 161.252 158.358 162.044 154.635 163.585C150.913 165.127 147.53 167.387 144.681 170.236C141.832 173.085 139.572 176.468 138.031 180.191C136.49 183.914 135.698 187.905 135.7 191.934V192.153C135.696 195.012 136.424 197.824 137.815 200.322C139.378 201.914 141.243 203.177 143.302 204.036C145.36 204.896 147.569 205.336 149.8 205.329H187.03C188.166 205.329 189.256 205.78 190.059 206.584C190.863 207.387 191.314 208.477 191.314 209.613C191.316 210.751 191.769 211.841 192.573 212.645C193.378 213.449 194.469 213.9 195.607 213.9H195.7L204.892 213.666C204.892 213.576 204.874 213.495 204.874 213.414C204.079 213.141 203.39 212.626 202.902 211.942C202.414 211.258 202.152 210.438 202.153 209.598V209.4C202.154 208.264 202.605 207.175 203.409 206.372C204.212 205.568 205.301 205.117 206.437 205.116H215.5C219.956 205.116 224.229 203.346 227.379 200.195C230.53 197.045 232.3 192.772 232.3 188.316C232.316 182.472 230.649 176.747 227.5 171.825ZM161.74 189.6C160.287 189.601 158.867 189.17 157.659 188.363C156.45 187.556 155.508 186.409 154.952 185.067C154.396 183.725 154.251 182.248 154.534 180.823C154.818 179.398 155.517 178.089 156.545 177.062C157.573 176.035 158.882 175.336 160.307 175.052C161.732 174.77 163.209 174.916 164.551 175.472C165.893 176.029 167.04 176.971 167.846 178.18C168.652 179.389 169.082 180.809 169.081 182.262C169.079 184.208 168.304 186.074 166.928 187.449C165.552 188.825 163.686 189.598 161.74 189.6ZM185.701 189.6C184.248 189.599 182.829 189.168 181.621 188.36C180.414 187.553 179.473 186.405 178.918 185.063C178.362 183.721 178.218 182.244 178.502 180.819C178.786 179.395 179.487 178.086 180.514 177.06C181.542 176.033 182.851 175.334 184.276 175.052C185.701 174.77 187.178 174.916 188.519 175.473C189.861 176.03 191.007 176.972 191.814 178.181C192.62 179.389 193.049 180.809 193.048 182.262C193.048 183.226 192.858 184.181 192.489 185.072C192.119 185.963 191.578 186.772 190.896 187.454C190.213 188.135 189.403 188.676 188.512 189.044C187.621 189.412 186.666 189.601 185.701 189.6ZM208.522 189.6C207.069 189.599 205.65 189.167 204.443 188.359C203.236 187.551 202.296 186.403 201.741 185.061C201.186 183.719 201.042 182.242 201.326 180.817C201.611 179.393 202.311 178.085 203.339 177.059C204.367 176.033 205.676 175.334 207.101 175.052C208.526 174.77 210.003 174.916 211.344 175.473C212.685 176.03 213.832 176.972 214.638 178.181C215.444 179.389 215.873 180.809 215.872 182.262C215.872 183.227 215.682 184.182 215.312 185.073C214.943 185.964 214.401 186.773 213.719 187.455C213.036 188.137 212.226 188.677 211.334 189.045C210.442 189.413 209.487 189.602 208.522 189.6Z" fill="#D7E8F0"/>
<path d="M232.3 188.319C232.3 192.775 230.53 197.048 227.379 200.198C224.229 203.349 219.956 205.119 215.5 205.119H206.443C205.308 205.12 204.219 205.571 203.416 206.374C202.613 207.176 202.161 208.264 202.159 209.4V209.598C202.158 210.438 202.42 211.258 202.908 211.942C203.396 212.626 204.085 213.141 204.88 213.414C205.299 213.559 205.739 213.632 206.182 213.63L204.898 213.666L195.7 213.9H195.601C194.464 213.9 193.374 213.449 192.569 212.646C191.764 211.843 191.31 210.753 191.308 209.616C191.308 208.48 190.857 207.39 190.053 206.587C189.25 205.783 188.16 205.332 187.024 205.332H149.8C145.344 205.332 141.071 203.562 137.921 200.411C134.77 197.261 133 192.988 133 188.532V188.313C133 184.286 133.794 180.299 135.335 176.579C136.877 172.859 139.136 169.479 141.983 166.632C144.831 163.785 148.211 161.527 151.932 159.986C155.652 158.445 159.639 157.652 163.666 157.653H201.628C209.761 157.654 217.562 160.885 223.314 166.635C229.065 172.386 232.298 180.185 232.3 188.319Z" stroke="black" stroke-width="2" stroke-miterlimit="10"/>
<path d="M327.346 198.975C327.328 198.975 327.319 198.957 327.301 198.957C320.188 196.815 316.726 192.441 315.226 188.247C315.226 188.247 315.226 188.247 315.226 188.229C314.053 184.959 314.08 181.794 314.503 179.904C314.757 178.903 314.917 177.881 314.983 176.85C315.082 173.931 312.94 174.645 306.814 175.866C304 176.436 302.2 175.368 301.3 173.85C301.213 173.718 301.136 173.578 301.072 173.433C300.652 172.549 300.478 171.569 300.568 170.595" stroke="black" stroke-width="2" stroke-miterlimit="10"/>
<path d="M297.044 187.407C296.936 187.254 296.825 187.107 296.717 186.99C295.769 185.907 294.683 186.033 292.985 186.69C292.559 186.852 291.485 186.807 290.636 186.51C289.922 186.255 289.388 185.814 289.631 185.154C289.693 185.018 289.786 184.899 289.902 184.804C290.018 184.71 290.154 184.644 290.3 184.611C290.582 184.54 290.869 184.482 291.158 184.44C294.071 183.789 293.42 180.417 293.066 178.302C292.208 172.98 293.348 166.716 296.981 162.567C300.983 158.004 307.529 157.053 313.058 159.141C317.921 160.977 322.496 164.961 323.444 170.286C323.444 170.304 323.444 170.322 323.462 170.34C323.48 170.358 323.462 170.385 323.462 170.403C324.023 173.73 323.462 177.336 322.811 180.627C322.421 182.577 322.568 184.17 323.111 185.487C324.812 189.798 330.551 191.301 335.177 193.434C346.124 198.477 355.043 207.099 361.055 217.584C365.801 225.9 366.926 231.015 366.665 234.171C366.302 238.41 363.428 239.1 363.428 239.1C360.998 240.537 357.263 238.992 356.513 236.298C356.501 236.269 356.495 236.239 356.495 236.208C355.895 233.901 354.725 230.937 353.153 227.694" stroke="black" stroke-width="2" stroke-miterlimit="10"/>
<path d="M300.556 170.595C300.556 172.2 299.8 173.784 298.156 174.459C296.308 175.221 295.558 177.228 295.288 179.181C294.91 182.041 295.526 184.943 297.031 187.404C298.426 189.72 300.697 192.273 303.913 192.273C309.805 192.273 312.331 189.432 312.331 189.432" stroke="black" stroke-width="2" stroke-miterlimit="10"/>
<path d="M306.673 180.102C307.226 180.102 307.675 179.654 307.675 179.1C307.675 178.547 307.226 178.098 306.673 178.098C306.12 178.098 305.671 178.547 305.671 179.1C305.671 179.654 306.12 180.102 306.673 180.102Z" fill="black"/>
<path d="M297.859 180.687C298.412 180.687 298.861 180.239 298.861 179.685C298.861 179.132 298.412 178.683 297.859 178.683C297.306 178.683 296.857 179.132 296.857 179.685C296.857 180.239 297.306 180.687 297.859 180.687Z" fill="black"/>
<path d="M302.182 178.158C302.182 178.158 301.681 182.115 301.882 182.658C302.083 183.201 303.337 182.58 303.337 182.58" stroke="black" stroke-width="2" stroke-miterlimit="10"/>
<path d="M304.039 186.042C306.184 186.831 308.398 185.826 309.046 183.897" stroke="black" stroke-width="2" stroke-miterlimit="10"/>
<path d="M311.859 180.548C313.314 178.488 312.783 175.611 310.674 174.12C308.564 172.63 305.674 173.091 304.219 175.151C302.764 177.21 303.295 180.088 305.404 181.579C307.514 183.069 310.404 182.608 311.859 180.548Z" stroke="black" stroke-width="2" stroke-miterlimit="10"/>
<path d="M300.142 181.137C301.597 179.077 301.066 176.199 298.956 174.709C296.846 173.219 293.957 173.68 292.502 175.74C291.046 177.799 291.577 180.677 293.687 182.168C295.797 183.658 298.686 183.197 300.142 181.137Z" stroke="black" stroke-width="2" stroke-miterlimit="10"/>
<path d="M296.24 175.257C297.073 175.255 297.876 175.567 298.488 176.133C299.1 176.698 299.476 177.474 299.54 178.305C299.573 178.718 299.523 179.133 299.392 179.526C299.261 179.919 299.052 180.281 298.778 180.591C298.5 180.905 298.162 181.16 297.784 181.341C297.405 181.521 296.994 181.623 296.576 181.641H296.408C295.574 181.643 294.77 181.33 294.158 180.764C293.546 180.198 293.171 179.421 293.108 178.59C293.075 178.177 293.126 177.762 293.257 177.369C293.389 176.976 293.598 176.614 293.873 176.304C294.15 175.99 294.488 175.736 294.865 175.555C295.243 175.375 295.653 175.273 296.072 175.254H296.24V175.257ZM296.24 174.576H296.039C295.533 174.598 295.037 174.723 294.58 174.94C294.123 175.159 293.715 175.466 293.379 175.845C293.043 176.224 292.787 176.666 292.625 177.146C292.464 177.626 292.4 178.133 292.439 178.638C292.52 179.638 292.974 180.571 293.711 181.252C294.447 181.934 295.413 182.313 296.417 182.316H296.618C297.123 182.293 297.619 182.169 298.076 181.951C298.533 181.733 298.941 181.426 299.277 181.047C299.613 180.668 299.869 180.226 300.031 179.746C300.192 179.266 300.256 178.759 300.218 178.254C300.136 177.254 299.682 176.321 298.946 175.639C298.209 174.958 297.243 174.579 296.24 174.576Z" fill="white"/>
<path d="M303.412 178.095L300.952 178.221" stroke="black" stroke-width="2" stroke-miterlimit="10"/>
<path opacity="0.53" d="M311.274 180.134C312.506 178.39 312.057 175.953 310.27 174.691C308.484 173.429 306.037 173.82 304.805 175.565C303.573 177.309 304.022 179.746 305.808 181.008C307.594 182.27 310.041 181.879 311.274 180.134Z" fill="white"/>
<path opacity="0.53" d="M299.556 180.723C300.789 178.979 300.34 176.542 298.553 175.28C296.767 174.018 294.32 174.409 293.088 176.153C291.855 177.898 292.304 180.335 294.091 181.597C295.877 182.859 298.324 182.468 299.556 180.723Z" fill="white"/>
<path d="M305.668 192.273L311.131 205.251C311.131 205.251 321.67 208.086 324.232 198.114" stroke="black" stroke-width="2" stroke-miterlimit="10"/>
<path d="M202.015 259.535C206.141 258.234 208.301 253.421 206.839 248.785C205.377 244.149 200.847 241.445 196.722 242.746C192.596 244.047 190.436 248.86 191.898 253.496C193.36 258.132 197.889 260.836 202.015 259.535Z" fill="#D7E8F0"/>
<path d="M304.209 285.822C304.092 275.259 302.229 264.822 301.371 260.562" stroke="black" stroke-width="2" stroke-miterlimit="10"/>
</svg>
