<svg width="300" height="300" viewBox="0 0 300 300" fill="none" xmlns="http://www.w3.org/2000/svg">
<path d="M270.899 288.198H185.33H191.258L245.378 287.571C255.383 286.701 262.433 276.888 258.632 267.597C257.975 265.992 258.662 265.545 257.849 263.997C249.341 247.977 234.59 234.927 217.874 227.346C218.288 227.268 218.705 227.211 219.131 227.154C216.018 225.595 212.812 224.23 209.531 223.065C207.791 222.444 206.03 221.883 204.272 221.391C195.629 218.955 183.95 220.068 180.272 229.638C177.179 237.672 181.286 247.377 189.011 250.896L202.886 256.2C202.769 256.026 202.664 255.852 202.556 255.669L214.622 260.28C214.862 260.448 215.044 260.685 215.145 260.959C215.246 261.233 215.261 261.532 215.188 261.815C215.114 262.098 214.956 262.352 214.734 262.542C214.513 262.733 214.238 262.851 213.947 262.881L184.643 266.082C180.419 266.508 175.13 268.275 172.016 271.182C169.745 273.282 167.831 276.141 167.849 279.759C165.934 279.903 164.03 280.171 162.149 280.56C159.278 281.178 156.356 282.243 156.149 283.992C155.741 287.502 160.73 288.216 163.874 288.216L143.978 288.138C146.114 288.138 146.378 288.12 147.794 286.71C149.21 285.3 150.794 284.214 150.794 282.078L150.968 275.232C150.968 273.822 151.304 272.682 149.894 272.682H137.294C137.807 272.696 138.314 272.562 138.752 272.296C139.191 272.03 139.544 271.643 139.769 271.182C139.779 271.171 139.785 271.158 139.787 271.143C140.417 269.973 140.561 268.29 140.444 266.697L140.591 266.175L140.969 264.783L148.973 260.073C149.033 260.038 149.091 260 149.147 259.959C153.323 257.406 153.845 252.843 152.414 248.763C152.384 248.685 152.366 248.616 152.336 248.55C152.27 248.376 152.21 248.211 152.135 248.046C151.753 247.116 151.28 246.225 150.722 245.388C148.655 242.16 145.655 239.529 142.805 238.842C142.006 238.661 141.189 238.571 140.369 238.572C150.287 229.272 161.714 221.007 175.211 218.259C187.02 215.819 199.233 216.138 210.899 219.189C224.531 222.816 236.807 230.346 246.542 240.516C259.646 254.187 265.775 270.159 270.899 288.198Z" fill="#353642"/>
<path d="M137.58 247.095C137.109 248.021 136.339 248.761 135.396 249.195C134.59 249.6 133.736 249.903 132.855 250.095C131.403 250.338 130.89 249.42 129.963 248.52C129.434 248.009 128.826 247.588 128.163 247.272C127.765 247.077 127.329 246.972 126.886 246.965C126.443 246.959 126.004 247.05 125.601 247.233C125.328 247.355 125.095 247.553 124.933 247.804C124.77 248.054 124.683 248.347 124.683 248.646C124.743 249.747 126.261 250.617 127.119 251.073C128.239 251.602 129.403 252.032 130.599 252.357C133.53 253.257 128.649 255.132 127.623 255.249C125.428 255.546 123.201 255.494 121.023 255.093C121.648 256.49 122.128 257.948 122.454 259.443C122.793 260.874 123.189 262.596 122.91 264.036C122.571 265.728 121.428 266.985 120.018 267.837L114.537 244.971C116.558 244.008 118.756 243.474 120.993 243.4C123.231 243.327 125.459 243.717 127.539 244.545C128.232 244.801 128.985 244.852 129.706 244.692C130.428 244.533 131.089 244.169 131.61 243.645L132.171 243.102C132.952 242.932 133.766 242.997 134.511 243.288C135.84 243.789 138.3 245.4 137.58 247.095Z" fill="#3FBDF1"/>
<path d="M143.208 272.664H120.576C120.347 274.799 119.337 276.774 117.74 278.209C116.143 279.644 114.071 280.437 111.924 280.437H35.8384C35.8432 282.495 36.6628 284.467 38.1178 285.922C39.5728 287.377 41.5447 288.196 43.6024 288.201H143.202C145.26 288.194 147.232 287.374 148.688 285.92C150.143 284.465 150.966 282.495 150.975 280.437V275.217C150.975 274.54 150.706 273.89 150.227 273.412C149.749 272.933 149.099 272.664 148.422 272.664H143.208Z" stroke="black" stroke-width="2" stroke-miterlimit="10"/>
<path d="M108.258 221.91C108.926 222.831 109.406 223.875 109.671 224.982L120.393 269.682C120.629 270.652 120.692 271.657 120.576 272.649C120.347 274.784 119.337 276.759 117.74 278.194C116.142 279.629 114.071 280.422 111.924 280.422H34.4248C32.4679 280.421 30.5686 279.761 29.0324 278.549C27.4961 277.337 26.4124 275.644 25.9557 273.741L15.2457 229.041C14.9364 227.761 14.9219 226.426 15.2033 225.139C15.4847 223.853 16.0546 222.646 16.8701 221.612C17.6857 220.577 18.7255 219.742 19.9112 219.168C21.0968 218.593 22.3974 218.296 23.7147 218.298H101.202C102.475 218.296 103.732 218.575 104.885 219.115C106.038 219.655 107.057 220.442 107.871 221.421L108.258 221.91Z" stroke="black" stroke-width="2" stroke-miterlimit="10"/>
<path d="M70.6594 261.616C75.073 260.224 77.383 255.075 75.8188 250.115C74.2549 245.155 69.4093 242.262 64.996 243.653C60.5827 245.045 58.2727 250.194 59.8366 255.154C61.4005 260.114 66.2461 263.007 70.6594 261.616Z" fill="#D7E8F0"/>
<path d="M219.555 226.893C212.718 228.036 207.462 231.162 203.934 237.633C200.775 243.423 200.406 250.488 203.775 256.233L190.02 250.959C182.055 247.311 179.253 239.205 182.445 230.88C186.24 220.962 198.282 219.81 207.195 222.336C209.01 222.846 210.822 223.428 212.616 224.07C214.96 224.91 217.273 225.851 219.555 226.893Z" fill="#353642"/>
<path d="M59.3638 218.304C64.8208 211.253 72.3457 206.084 80.8858 203.52C79.7482 200.465 78.8455 197.326 78.1858 194.133C71.0998 159.669 93.2608 125.976 127.716 118.869C162.171 111.762 195.876 133.914 202.98 168.369C203.774 172.23 204.216 176.155 204.3 180.096C206.761 179.223 209.28 178.521 211.839 177.996C241.95 171.771 271.41 191.145 277.626 221.262C279.38 229.73 279.135 238.491 276.91 246.847C274.684 255.204 270.54 262.926 264.807 269.4" stroke="#9F9F9F" stroke-width="2" stroke-miterlimit="10"/>
<path d="M134.469 272.667H136.596C137.207 272.682 137.814 272.554 138.368 272.294C138.921 272.033 139.406 271.647 139.785 271.167C139.795 271.156 139.802 271.142 139.806 271.128C140.569 270.085 140.916 268.795 140.781 267.51L140.607 266.157L140.463 265.065L140.985 264.765L149.163 259.941L149.715 259.623C153.708 257.274 153.996 252.894 152.43 248.745C152.403 248.67 152.382 248.601 152.355 248.532C152.286 248.358 152.217 248.196 152.151 248.031C151.75 247.109 151.278 246.221 150.738 245.373C148.671 242.142 145.674 239.514 142.821 238.827C142.022 238.645 141.205 238.554 140.385 238.557C138.675 238.557 136.785 238.884 135.792 239.871C146.4 229.434 158.793 219.639 173.7 216.6C185.514 214.164 197.732 214.489 209.4 217.548C223.032 221.175 235.32 228.714 245.055 238.884C245.568 239.418 246.069 239.958 246.555 240.51C258.756 253.92 266.538 270.858 271.455 288.192" stroke="black" stroke-width="2" stroke-miterlimit="10"/>
<path d="M138.209 288.201H284.999" stroke="black" stroke-width="2" stroke-miterlimit="10"/>
<path d="M175.164 288.198H191.82" stroke="black" stroke-width="2" stroke-miterlimit="10"/>
<path d="M189.087 250.818C181.359 247.299 177.255 237.594 180.345 229.563C184.029 219.99 195.708 218.877 204.345 221.313C206.109 221.807 207.862 222.365 209.604 222.987C229.023 229.887 246.669 244.212 256.305 262.362C257.118 263.898 257.766 265.476 258.423 267.084C259.309 269.244 259.674 271.583 259.489 273.91C259.305 276.238 258.575 278.489 257.36 280.482C256.145 282.476 254.478 284.156 252.493 285.386C250.509 286.616 248.263 287.363 245.937 287.565L191.82 288.198H175.164C173.693 288.198 172.258 287.738 171.061 286.881C169.865 286.025 168.967 284.815 168.492 283.422C166.665 278.022 169.026 273.948 172.011 271.173C175.125 268.281 179.187 266.628 183.411 266.202L213.813 263.13C214.104 263.1 214.379 262.982 214.602 262.792C214.824 262.601 214.983 262.347 215.056 262.064C215.13 261.781 215.116 261.482 215.016 261.207C214.915 260.933 214.733 260.695 214.494 260.526L189.087 250.818Z" stroke="black" stroke-width="2" stroke-miterlimit="10"/>
<path d="M180.024 272.1C177.249 273.696 174.396 276.195 173.442 279.36C172.344 283.005 174.921 286.317 177.849 288.213" stroke="black" stroke-width="2" stroke-miterlimit="10"/>
<path d="M183 276.282C180.411 278.745 178.167 281.868 179.664 285.582C180.092 286.601 180.759 287.503 181.608 288.21" stroke="black" stroke-width="2" stroke-miterlimit="10"/>
<path d="M188.079 281.1C188.079 281.1 182.118 285.531 185.904 288.189" stroke="black" stroke-width="2" stroke-miterlimit="10"/>
<path d="M172.779 287.775L172.884 288.201H163.266C160.122 288.201 155.766 287.718 156.177 284.208C156.588 280.698 167.847 279.741 167.847 279.741" stroke="black" stroke-width="2" stroke-miterlimit="10"/>
<path d="M155.526 177.402L135.057 180.465L138.624 182.979L145.296 188.322C146.34 189.057 146.079 190.791 146.658 191.844C146.878 193.433 146.628 195.052 145.94 196.501C145.251 197.95 144.154 199.167 142.783 200C141.412 200.834 139.827 201.248 138.224 201.192C136.62 201.136 135.068 200.613 133.758 199.686L117.663 188.364C115.887 187.137 114.461 185.468 113.526 183.522C112.209 176.967 116.25 169.677 124.026 168.522L146.4 165.162L143.1 162.6L132.939 154.692C132.069 154.018 131.343 153.176 130.803 152.217C130.577 150.593 130.842 148.938 131.562 147.465C132.283 145.992 133.428 144.767 134.849 143.949C136.27 143.131 137.903 142.755 139.539 142.871C141.175 142.987 142.739 143.589 144.03 144.6L162.156 158.7C163.639 159.838 164.837 161.305 165.657 162.984C166.893 169.32 162.939 176.289 155.526 177.402Z" fill="#3FBDF1"/>
<path d="M140.466 265.062C140.466 265.062 139.842 259.572 137.727 257.637" stroke="black" stroke-width="2" stroke-miterlimit="10"/>
<path d="M114.327 245.355C116.369 244.352 118.599 243.788 120.873 243.7C123.147 243.612 125.414 244.002 127.527 244.845C128.221 245.101 128.975 245.153 129.698 244.993C130.42 244.833 131.082 244.47 131.604 243.945L135.783 239.853" stroke="black" stroke-width="2" stroke-miterlimit="10"/>
<path d="M127.611 268.677L131.1 270.246C131.178 270.278 131.261 270.293 131.345 270.291C131.429 270.289 131.512 270.269 131.588 270.233C131.663 270.197 131.731 270.145 131.786 270.081C131.84 270.017 131.88 269.943 131.904 269.862L132.453 268.62" stroke="black" stroke-width="2" stroke-miterlimit="10"/>
<path d="M128.181 261.747C128.474 262.418 128.575 263.157 128.475 263.882C128.374 264.608 128.075 265.291 127.611 265.857" stroke="black" stroke-width="2" stroke-miterlimit="10"/>
<path d="M136.095 272.664C136.644 271.851 136.641 269.886 136.5 269.097C136.41 268.596 135.567 268.416 135.477 268.92C135.231 270.327 133.644 272.49 132.177 272.664" stroke="black" stroke-width="2" stroke-miterlimit="10"/>
<path d="M129.05 267.36C131.524 267.36 133.529 265.354 133.529 262.881C133.529 260.407 131.524 258.402 129.05 258.402C126.577 258.402 124.571 260.407 124.571 262.881C124.571 265.354 126.577 267.36 129.05 267.36Z" stroke="black" stroke-width="2" stroke-miterlimit="10"/>
<path d="M127.551 267.099L126.753 269.343C126.199 269.146 125.611 269.059 125.024 269.089C124.436 269.119 123.861 269.264 123.329 269.516C122.798 269.769 122.321 270.123 121.927 270.56C121.533 270.997 121.229 271.507 121.032 272.061" stroke="black" stroke-width="2" stroke-miterlimit="10"/>
<path opacity="0.53" d="M129.051 266.673C131.145 266.673 132.843 264.975 132.843 262.881C132.843 260.787 131.145 259.089 129.051 259.089C126.957 259.089 125.259 260.787 125.259 262.881C125.259 264.975 126.957 266.673 129.051 266.673Z" fill="white"/>
<path d="M120 268.131C121.41 267.279 122.55 266.031 122.889 264.333C123.171 262.89 122.775 261.171 122.436 259.74C122.11 258.245 121.631 256.787 121.005 255.39C123.183 255.79 125.411 255.841 127.605 255.543C128.628 255.429 133.512 253.563 130.581 252.654C129.386 252.33 128.222 251.899 127.104 251.367C126.24 250.92 124.725 250.05 124.671 248.946C124.667 248.648 124.751 248.355 124.91 248.103C125.07 247.851 125.3 247.651 125.571 247.527C125.975 247.345 126.414 247.254 126.857 247.262C127.3 247.27 127.736 247.376 128.133 247.572C128.798 247.885 129.407 248.307 129.933 248.82C130.863 249.72 131.37 250.62 132.828 250.389C133.708 250.199 134.56 249.897 135.363 249.489C136.309 249.056 137.081 248.316 137.553 247.389C138.279 245.7 135.813 244.089 134.475 243.606C133.732 243.314 132.919 243.247 132.138 243.414" stroke="black" stroke-width="2" stroke-miterlimit="10"/>
<path d="M155.527 177.402L135.058 180.465L138.625 182.979L143.239 186.219C144.144 186.833 144.919 187.62 145.517 188.536C146.115 189.452 146.524 190.478 146.721 191.554C146.918 192.63 146.899 193.734 146.664 194.803C146.43 195.871 145.985 196.882 145.356 197.777C144.726 198.671 143.925 199.432 142.998 200.013C142.071 200.594 141.038 200.985 139.959 201.163C138.88 201.341 137.776 201.302 136.712 201.048C135.648 200.795 134.645 200.332 133.762 199.686L117.667 188.364C115.89 187.137 114.464 185.468 113.53 183.522C110.107 176.415 114.109 166.95 123.052 165.615L140.803 162.957L143.101 162.6L132.94 154.692C132.087 154.028 131.373 153.203 130.839 152.263C130.305 151.323 129.961 150.287 129.827 149.214C129.693 148.141 129.772 147.053 130.059 146.01C130.346 144.968 130.836 143.992 131.5 143.139C132.164 142.286 132.989 141.572 133.929 141.038C134.869 140.504 135.905 140.16 136.978 140.027C138.051 139.893 139.139 139.972 140.182 140.259C141.224 140.546 142.2 141.035 143.053 141.699L161.179 155.799C163.499 157.564 165.089 160.12 165.646 162.981C166.894 169.32 162.94 176.289 155.527 177.402Z" stroke="black" stroke-width="2" stroke-miterlimit="10"/>
<path d="M110.598 212.199L110.4 206.97L108.081 209.346C107.687 209.748 107.15 209.977 106.588 209.984C106.026 209.991 105.484 209.774 105.081 209.382C104.679 208.989 104.449 208.452 104.442 207.89C104.436 207.327 104.652 206.785 105.045 206.382L109.2 202.14C109.628 201.702 110.175 201.399 110.774 201.269C111.372 201.138 111.996 201.186 112.568 201.407C113.139 201.628 113.633 202.011 113.989 202.51C114.345 203.009 114.547 203.601 114.57 204.213L114.765 209.547L116.475 207.618C116.659 207.409 116.884 207.238 117.135 207.116C117.386 206.993 117.658 206.922 117.937 206.905C118.216 206.888 118.495 206.927 118.759 207.018C119.023 207.11 119.266 207.252 119.475 207.438C119.684 207.623 119.854 207.847 119.977 208.098C120.099 208.349 120.171 208.621 120.188 208.9C120.205 209.179 120.167 209.458 120.076 209.722C119.985 209.986 119.843 210.229 119.658 210.438L116.289 214.239C115.859 214.729 115.291 215.079 114.66 215.243C114.028 215.407 113.362 215.376 112.749 215.156C112.135 214.936 111.601 214.536 111.217 214.009C110.834 213.481 110.618 212.851 110.598 212.199Z" fill="#D7E8F0"/>
<path d="M127.981 221.631L130.45 221.079L129.115 220.179C128.889 220.026 128.732 219.79 128.679 219.523C128.626 219.256 128.682 218.978 128.833 218.751C128.985 218.524 129.221 218.368 129.489 218.316C129.757 218.263 130.034 218.32 130.261 218.472L132.643 220.065C132.89 220.23 133.083 220.463 133.198 220.737C133.313 221.011 133.345 221.312 133.291 221.604C133.236 221.896 133.097 222.165 132.891 222.378C132.684 222.592 132.42 222.739 132.13 222.804L129.601 223.374L130.672 224.019C130.787 224.089 130.888 224.18 130.968 224.289C131.048 224.397 131.106 224.521 131.138 224.652C131.17 224.783 131.177 224.919 131.156 225.052C131.136 225.185 131.09 225.313 131.02 225.429C130.879 225.662 130.652 225.83 130.387 225.896C130.123 225.961 129.844 225.92 129.61 225.78L127.51 224.511C127.24 224.35 127.024 224.11 126.892 223.825C126.759 223.54 126.715 223.221 126.766 222.911C126.817 222.6 126.96 222.312 127.177 222.084C127.393 221.856 127.673 221.698 127.981 221.631Z" fill="#D7E8F0"/>
<path d="M121.738 236.052L121.939 234.402L121.09 235.032C121.019 235.085 120.938 235.123 120.852 235.145C120.766 235.167 120.676 235.171 120.588 235.159C120.501 235.146 120.416 235.116 120.34 235.07C120.264 235.025 120.198 234.965 120.145 234.894C120.038 234.75 119.993 234.57 120.019 234.393C120.045 234.216 120.14 234.056 120.283 233.949L121.783 232.824C121.939 232.708 122.126 232.639 122.32 232.628C122.515 232.617 122.709 232.663 122.877 232.761C123.046 232.858 123.182 233.004 123.269 233.178C123.356 233.352 123.39 233.548 123.367 233.742L123.163 235.428L123.796 234.906C123.864 234.85 123.943 234.807 124.028 234.781C124.113 234.755 124.202 234.747 124.29 234.755C124.379 234.764 124.464 234.79 124.543 234.832C124.621 234.874 124.69 234.93 124.747 234.999C124.803 235.067 124.845 235.146 124.871 235.231C124.897 235.316 124.906 235.405 124.897 235.494C124.889 235.582 124.863 235.668 124.821 235.746C124.779 235.824 124.722 235.894 124.654 235.95L123.406 236.976C123.246 237.103 123.052 237.18 122.849 237.197C122.645 237.214 122.442 237.17 122.263 237.071C122.084 236.972 121.939 236.823 121.846 236.641C121.752 236.46 121.715 236.255 121.738 236.052Z" fill="#D7E8F0"/>
<path d="M219.555 227.1L219.429 227.313C219.333 227.253 219.233 227.201 219.129 227.157L219.555 227.1Z" fill="#353642"/>
</svg>
